{"title":"Rommel 2012 480p BRRip XviD DiN","uid":8826480,"size":1567578883,"categoryP":"video","categoryS":"movies","magnet":"?xt=urn:btih:fb5bf6df7e7dd6510b88a98b1468c4d69a1905b3&amp;dn=Rommel+2012+480p+BRRip+XviD+DiN+&amp;tr=udp%3A%2F%2Ftracker.openbittorrent.com%3A80&amp;tr=udp%3A%2F%2Fopen.demonii.com%3A1337&amp;tr=udp%3A%2F%2Ftracker.coppersurfer.tk%3A6969&amp;tr=udp%3A%2F%2Fexodus.desync.com%3A6969","seeders":1,"leechers":0,"uploader":"R0thschild","files":4,"time":1376860501,"description":" &lt;a href=&quot;http://www.imdb.com/title/tt2157346/?ref_=fn_al_tt_1&quot; rel=&quot;nofollow&quot; target=&quot;_NEW&quot;&gt;http://www.imdb.com/title/tt2157346/?ref_=fn_al_tt_1&lt;/a&gt;\n\n\nGeneral\n\nComplete name                            : Rommel.2012.480p.BRRip.XviD-DiN\n\nFormat                                   : AVI\nFormat/Info                              : Audio Video Interleave\nFile size                                : 1.44 GiB\nDuration                                 : 1h 58mn\nOverall bit rate                         : 1 742 Kbps\n\n\n\nVideo\n\nID                                       : 0\nFormat                                   : MPEG-4 Visual\nFormat profile                           : Advanced Simple@L5\nFormat settings, BVOP                    : 2\nFormat settings, QPel                    : No\nFormat settings, GMC                     : No warppoints\nFormat settings, Matrix                  : Default (H.263)\nCodec ID                                 : XVID\nCodec ID/Hint                            : XviD\nDuration                                 : 1h 58mn\nBit rate                                 : 1 350 Kbps\nWidth                                    : 720 pixels\nHeight                                   : 400 pixels\nDisplay aspect ratio                     : 16:9\nFrame rate                               : 25.000 fps\nColor space                              : YUV\nChroma subsampling                       : 4:2:0\nBit depth                                : 8 bits\nScan type                                : Progressive\nCompression mode                         : Lossy\nBits/(Pixel*Frame)                       : 0.187\nStream size                              : 1.12 GiB (77%)\nWriting library                          : XviD 1.2.1 (UTC 2008-12-04)\n\n\n\nAudio\n\nID                                       : 1\nFormat                                   : AC-3\nFormat/Info                              : Audio Coding 3\nMode extension                           : CM (complete main)\nFormat settings, Endianness              : Big\nCodec ID                                 : 2000\nDuration                                 : 1h 58mn\nBit rate mode                            : Constant\nBit rate                                 : 384 Kbps\nChannel(s)                               : 6 channels\nChannel positions                        : Front: L C R, Side: L R, LFE\nSampling rate                            : 48.0 KHz\nBit depth                                : 16 bits\nCompression mode                         : Lossy\nStream size                              : 326 MiB (22%)\nAlignment                                : Aligned on interleaves\nInterleave, duration                     : 64 ms (1.60 video frames)\nInterleave, preload duration             : 192 ms\nTitle                                    : Rommel.2012.BluRay\n","torrent":{"xt":"urn:btih:fb5bf6df7e7dd6510b88a98b1468c4d69a1905b3","amp;dn":"Rommel+2012+480p+BRRip+XviD+DiN+","amp;tr":["udp%3A%2F%2Ftracker.openbittorrent.com%3A80","udp%3A%2F%2Fopen.demonii.com%3A1337","udp%3A%2F%2Ftracker.coppersurfer.tk%3A6969","udp%3A%2F%2Fexodus.desync.com%3A6969"],"infoHash":"fb5bf6df7e7dd6510b88a98b1468c4d69a1905b3","infoHashBuffer":{"type":"Buffer","data":[251,91,246,223,126,125,214,81,11,136,169,139,20,104,196,214,154,25,5,179]},"announce":[],"urlList":[]}}